<?xml version="1.0" standalone="no"?>
<!DOCTYPE svg PUBLIC "-//W3C//DTD SVG 1.1//EN" "http://www.w3.org/Graphics/SVG/1.1/DTD/svg11.dtd" >
<!--
2013-9-30: Created.
-->
<svg>
<metadata>
Created by iconfont
</metadata>
<defs>

<font id="iconfont" horiz-adv-x="1024" >
  <font-face
    font-family="iconfont"
    font-weight="500"
    font-stretch="normal"
    units-per-em="1024"
    ascent="896"
    descent="-128"
  />
    <missing-glyph />
    
    <glyph glyph-name="cf-c09" unicode="&#58902;" d="M798.4 550.4h-25.6c0 1.6 0 1.6 0 3.2v54.4c0 123.2-73.6 220.8-187.2 251.2-22.4 6.4-46.4 9.6-72 9.6-72 0-137.6-27.2-184-76.8-44.8-48-70.4-113.6-68.8-184l-1.6-54.4h-30.4c-70.4 0-129.6-57.6-129.6-129.6v-379.2c0-70.4 57.6-129.6 129.6-129.6h568c70.4 0 129.6 57.6 129.6 129.6l0 376c0 70.4-57.6 129.6-128 129.6v0zM515.2 798.4c17.6 0 36.8-1.6 52.8-6.4 83.2-20.8 136-94.4 136-184v-54.4c0-1.6 0-1.6 0-3.2l-374.4-0 1.6 56c-0 110.4 76.8 192 184 192v0zM857.6 41.6c0-33.6-27.2-60.8-60.8-60.8l-568-0c-33.6 0-60.8 27.2-60.8 60.8v379.2c0 33.6 27.2 60.8 60.8 60.8h568c33.6 0 60.8-27.2 60.8-60.8l0-379.2zM513.6 360c-36.8 0-65.6-28.8-65.6-65.6 0-22.4 12.8-44.8 32-56v-102.4c0-19.2 16-33.6 33.6-33.6 19.2 0 33.6 16 33.6 33.6v102.4c19.2 11.2 32 33.6 32 56 0 36.8-28.8 65.6-65.6 65.6v0zM513.6 360z"  horiz-adv-x="1024" />

    
    <glyph glyph-name="tixing" unicode="&#58913;" d="M863.597777 133.785262c-7.613398 49.933249-95.696526 60.374042-97.194646 94.608751-1.5104 34.234709 7.432273 212.721823 7.432273 212.721823 5.027503 140.082432-91.236957 216.734206-190.076056 251.754814 0.10847 0.37453 0 1.00284-0.10847 1.655709 0.01228 0.713244 0.10847 1.401929 0.10847 2.12643 0 39.613206-32.132838 71.745021-71.757301 71.745021s-71.757301-32.132838-71.757301-71.757301c0-0.725524 0.084934-1.414209 0.10847-2.12643-0.10847-0.652869-0.217964-1.2689-0.10847-1.655709-98.850355-35.020608-195.114816-111.660102-190.076056-251.754814 0 0 8.942673-178.474834 7.432273-212.721823-1.5104-34.234709-89.582271-44.664246-97.194646-94.608751-4.967128-19.262716 17.268292-38.548968 38.573527-38.548968l225.77307 0c-0.51984-3.927449-0.89437-7.902994-0.89437-11.963473 0-48.700165 39.455617-88.203878 88.143503-88.264253 48.687886 0.060375 88.143503 39.564088 88.143503 88.264253 0 4.060479-0.37453 8.036024-0.89437 11.963473L825.02425 95.224014C846.329485 95.224014 868.552625 114.522546 863.597777 133.785262z"  horiz-adv-x="1024" />

    
    <glyph glyph-name="duoxuankuang" unicode="&#59020;" d="M832-32l-640 0c-52.92544 0-96 43.06944-96 96l0 640c0 52.92544 43.07456 96 96 96l640 0c52.93056 0 96-43.07456 96-96l0-640C928 11.06944 884.93056-32 832-32zM192 736c-17.63328 0-32-14.36672-32-32l0-640c0-17.664 14.36672-32 32-32l640 0c17.664 0 32 14.336 32 32l0 640c0 17.63328-14.336 32-32 32L192 736z"  horiz-adv-x="1024" />

    
    <glyph glyph-name="checkbox_true_part_focus" unicode="&#58903;" d="M817.506 480.020l-339.298-338.786c-7.010-6.971-17.92-6.971-24.891 0l-50.215 50.215-24.891 25.442-116.382 122.801c-3.505 2.993-5.553 7.995-5.553 12.446 0 5.002 2.048 8.98 5.553 12.446l50.688 46.277c3.505 3.466 8.468 4.962 12.918 4.962 4.49 0 8.98-1.497 12.446-4.962l115.436-117.918c6.971-7.010 17.881-7.010 24.891 0l264.153 263.168c6.932 6.971 17.92 6.971 24.852 0l50.294-50.767c6.892-6.932 6.892-18.353 0-25.324zM748.308 856.615h-472.615c-130.363 0-236.308-105.945-236.308-236.308v-472.615c0-130.363 105.945-236.308 236.308-236.308h472.615c130.363 0 236.308 105.945 236.308 236.308v472.615c0 130.363-105.945 236.308-236.308 236.308z"  horiz-adv-x="1024" />

    
    <glyph glyph-name="zhiban" unicode="&#58944;" d="M533.638-32.364c-255.798 0-369.359 53.491-369.359 73.817 0 139.636 77.924 267.572 196.129 332.09a400.997 400.997 0 0 0 6.642 3.541c47.785-33.822 106.016-59.411 168.817-59.411 62.63 0 120.748 25.49 168.46 59.166 5.388-2.865 11.02-6.144 18.06-10.463 109.386-67.197 180.626-190.829 180.626-324.923-0.001-20.326-113.579-73.817-369.375-73.817zM539.646 808.899c-130.519 0-236.684-106.541-236.684-237.49 0-130.952 106.165-237.491 236.684-237.491 130.5 0 236.667 106.539 236.667 237.491 0 130.949-106.167 237.49-236.667 237.49zM382.454 499.291c-3.313-3.503-8.084-5.353-12.876-5.353-4.96 0-9.567 1.849-13.065 5.353-3.481 3.499-5.335 8.308-5.335 13.1s1.854 9.605 5.335 13.104c6.813 6.834 19.132 6.834 25.941 0 3.503-3.499 5.503-8.312 5.503-13.104 0-4.977-2-9.601-5.503-13.1z m145.703 231.088c-80.866 0-146.639-66.019-146.639-147.141 0-10.183-8.256-18.456-18.399-18.456-10.162 0-18.379 8.273-18.379 18.456 0 101.489 82.263 184.051 183.417 184.051 10.14 0 18.396-8.271 18.396-18.454 0-10.202-8.256-18.456-18.396-18.456z"  horiz-adv-x="1024" />

    
    <glyph glyph-name="shuidi" unicode="&#58908;" d="M108.544 307.2c0 222.72 402.944 557.056 402.944 557.056s403.456-334.336 403.456-557.056-180.736-402.944-402.944-402.944-403.456 180.224-403.456 402.944zM555.008 112.64l158.208 158.208c24.576 24.576 25.088 64 1.024 88.064l-2.56 2.56c-24.064 24.064-62.976 23.04-87.04-1.024l-52.736-52.736 1.536 210.432c0.512 12.8-3.584 24.576-10.24 34.816-4.608 6.656-10.24 12.288-16.896 16.896-6.656 4.608-22.016 10.752-34.816 10.24-34.304-0.512-61.44-28.16-61.952-61.952l-1.536-206.336-49.152 49.152c-24.576 24.576-63.488 23.552-87.552-0.512l-1.024-1.024c-24.064-24.064-24.576-63.488-0.512-87.552l158.72-158.72c24.064-23.552 62.976-23.552 86.528-0.512z"  horiz-adv-x="1024" />

    
    <glyph glyph-name="-" unicode="&#58904;" d="M965.55182 429.62206l-77.523631 18.60473a378.713344 378.713344 0 0 1-18.222014 68.208475l57.790195 54.831816c4.898567 4.65195 5.535063 13.009292 1.516539 19.968797l-29.084408 50.374294c-4.018523 6.963599-11.574616 10.594289-18.051122 8.673544l-76.480882-22.660093a383.701962 383.701962 0 0 1-49.872874 49.871851l22.661116 76.482929c1.919722 6.477528-1.711991 14.030551-8.673543 18.051121l-50.373271 29.083385c-6.963599 4.021593-15.321964 3.38612-19.970844-1.513469L644.431172 741.805152a378.750183 378.750183 0 0 1-68.204382 18.219967l-18.606776 77.527724c-1.577938 6.569626-8.499581 11.2973-16.537652 11.297301h-58.165747c-8.040117 0-14.95869-4.727675-16.536629-11.297301l-18.606776-77.528747a378.728694 378.728694 0 0 1-68.202335-18.219967l-54.835909 57.796334c-4.65195 4.898567-13.009292 5.535063-19.973914 1.51347l-50.373271-29.083386c-6.960529-4.02057-10.591219-11.573593-8.674567-18.051121l22.664186-76.485999a383.726521 383.726521 0 0 1-49.869804-49.869804l-76.483952 22.661116c-6.479575 1.920746-14.032598-1.709945-18.054191-8.673543l-29.083386-50.374295c-4.018523-6.959505-3.384074-15.31787 1.514493-19.968797l57.796335-54.836932a378.728694 378.728694 0 0 1-18.219967-68.202335L58.44511 429.62206c-6.564509-1.577938-11.294231-8.497535-11.29423-16.537651v-58.167794c0-8.037047 4.729721-14.95869 11.29423-16.536629l77.530794-18.605753a378.665249 378.665249 0 0 1 18.219967-68.204381l-57.794287-54.834886c-4.898567-4.649903-5.533017-13.008268-1.514493-19.970844l29.083385-50.374294c4.021593-6.962575 11.574616-10.591219 18.054191-8.674567l76.480882 22.663162a383.758244 383.758244 0 0 1 49.870828-49.872874l-22.662139-76.479858c-1.916653-6.477528 1.714038-14.033621 8.674566-18.054192l50.373271-29.084408c6.962575-4.0175 15.321964-3.381004 19.973914 1.517563l54.831816 57.790194a378.702088 378.702088 0 0 1 68.207451-18.222014l18.605754-77.523631c1.577938-6.567579 8.496511-11.2973 16.536628-11.2973h58.165747c8.039093 0 14.960737 4.729721 16.537652 11.2973l18.605753 77.522608a378.638643 378.638643 0 0 1 68.209498 18.222014l54.831816-57.789171c4.64888-4.898567 13.008268-5.535063 19.970844-1.517563l50.373271 29.084408c6.960529 4.02057 10.592242 11.576663 8.673543 18.054192l-22.659069 76.476788a383.677403 383.677403 0 0 1 49.874921 49.874921l76.476789-22.661116c6.476505-1.916653 14.032598 1.711991 18.051121 8.674567l29.084409 50.374294c4.02057 6.962575 3.38305 15.32094-1.51654 19.970844l-57.789171 54.830793a378.734834 378.734834 0 0 1 18.222014 68.210521l77.522607 18.603707c6.566556 1.577938 11.2973 8.499581 11.297301 16.536628v58.167794c-0.001023 8.039093-4.731768 14.95869-11.298324 16.536628z m-453.549773 204.607005c56.201 0 108.074438-18.530029 149.845796-49.811476l-94.846158-94.846158c-16.451694 8.588609-35.156708 13.450337-54.999638 13.450336-65.735144 0-119.023814-53.28867-119.023814-119.023814 0-19.84293 4.862751-38.548968 13.450336-54.999638l-94.846158-94.846158c-31.281447 41.771359-49.811476 93.644797-49.811476 149.84682 0 138.196479 112.033609 250.230088 250.231112 250.230088z m0-500.462223c-56.205093 0-108.080577 18.532075-149.85296 49.816592l94.846158 94.845135c16.452717-8.590656 35.160801-13.45443 55.007825-13.454429 65.735144 0 119.023814 53.287647 119.023814 119.023813 0 19.846-4.863774 38.553061-13.453407 55.005778l94.846158 94.845135c31.283494-41.772382 49.815569-93.647867 49.81557-149.850913-0.002047-138.197502-112.035656-250.231111-250.233158-250.231111z"  horiz-adv-x="1024" />

    
    <glyph glyph-name="mimazhongzhi" unicode="&#59107;" d="M831.68256 217.82016l121.54368 205.66528h-95.43168c-18.83136 199.32672-186.58304 355.33824-390.80448 355.33824-216.84736 0-392.69888-175.85152-392.69888-392.7552s175.85152-392.69376 392.69888-392.69376c115.08224 0 218.35264 49.84832 290.176 128.76288l-39.61856 41.1136c-61.6448-69.30432-150.4768-113.75104-250.55744-113.75104-185.89696 0-336.62976 150.66624-336.62976 336.62976 0 185.9584 150.67136 336.63488 336.62976 336.63488 173.08672 0 314.03008-131.1488 332.86144-299.2128H710.144l121.53856-205.73184zM558.73536 422.69184h-20.91008v41.82016a93.71136 93.71136 0 0 1-94.10048 94.10048 93.71136 93.71136 0 0 1-94.10048-94.10048v-41.82016h-20.90496a20.9664 20.9664 0 0 1-20.91008-20.90496V234.496a20.9664 20.9664 0 0 1 20.91008-20.90496h230.016a20.9664 20.9664 0 0 1 20.91008 20.90496V401.78688a20.9664 20.9664 0 0 1-20.91008 20.90496z m-52.2752 0H380.99456v41.82016c0 34.50368 28.23168 62.73536 62.73536 62.73536 34.5088 0 62.73536-28.23168 62.73536-62.73536l-0.00512-41.82016z"  horiz-adv-x="1024" />

    
    <glyph glyph-name="kongqizhiliang" unicode="&#58889;" d="M1013.12 5.12l-101.76 101.76c-0.64 0.64-1.28 1.28-1.92 1.28 26.24 35.84 40.96 80.64 40.96 128 0 3.84 0 7.04-0.64 10.88 45.44 41.6 73.6 103.04 73.6 170.88 0 122.24-92.16 221.44-204.8 221.44-10.24 0-20.48-0.64-30.72-1.92-44.8 113.92-148.48 188.16-264.96 188.16-95.36 0-184.32-51.2-238.72-135.04-16.64 4.48-35.2 6.4-52.48 6.4C103.68 696.32 0 584.32 0 446.72c0-138.24 103.68-250.88 231.68-250.88h283.52c19.2-101.76 108.16-179.2 215.68-179.2 47.36 0 91.52 15.36 127.36 40.32 0-0.64 0.64-1.28 1.28-1.92l101.76-101.76c7.04-6.4 16.64-10.24 25.6-10.24 9.6 0 19.2 3.84 26.24 10.24 14.08 14.08 14.08 37.12 0 51.84z m-139.52 199.04c-14.72-65.92-72.96-114.56-142.72-114.56-66.56 0-122.88 44.8-140.16 106.24-3.84 12.16-5.76 26.24-5.76 40.32 0 10.88 1.28 21.76 3.84 32.64 14.72 65.28 72.96 113.28 142.72 113.28 65.28 0 120.96-42.24 138.88-101.76h0.64c4.48-14.08 6.4-29.44 6.4-44.8 0-10.88-1.92-21.12-3.84-31.36z m-142.72 250.88C620.8 455.04 529.92 374.4 514.56 268.8H231.68c-87.68 0-158.72 80-158.72 177.92 0 97.28 71.04 177.28 158.72 177.28 19.2 0 37.76-3.84 55.68-11.52 17.28-7.04 37.76 0 46.72 17.28 39.04 75.52 111.36 122.88 188.8 122.88 95.36 0 177.92-67.2 206.72-168.32 3.2-9.6 9.6-17.28 18.56-22.4 9.6-4.48 19.84-5.12 29.44-1.28 13.44 4.48 26.88 6.4 41.6 6.4 72.32 0 131.84-66.56 131.84-148.48 0-30.72-8.96-60.16-23.68-83.84-36.48 71.68-110.08 120.32-196.48 120.32zM343.68 385.92h-37.76c-37.12 0-72.32 19.84-91.52 52.48-10.24 17.28-32.64 23.04-49.92 12.8s-23.04-32.64-12.8-49.92c32-54.4 91.52-88.32 154.24-88.32h40.32c20.48 0 35.2 16.64 35.2 36.48s-17.28 36.48-37.76 36.48z"  horiz-adv-x="1030" />

    
    <glyph glyph-name="feishui" unicode="&#58917;" d="M853.261312 29.696L922.624-4.096v-35.84H324.608v36.864l60.494848 32.768H225.28V164.864h777.216v-135.168H853.261312zM413.696 219.136h31.744v64.512l270.336 252.928s52.593664-68.365312 73.728-149.504c16.580608-63.653888 16.823296-133.136384 15.584256-167.936H822.272l58.368-38.912H365.568z m-35.84 93.184l8.192 17.408h-51.2V685.056s105.7792 6.515712 193.536-19.456c75.701248-22.404096 135.168-77.824 135.168-77.824l69.632 10.24-367.616-346.112z m-123.904 22.528H125.952V685.056h128v26.624l39.936 49.152v-506.88l-39.936 54.272v26.624zM24.576 232.448V795.648h38.912l58.368-110.592v-352.256l-58.368-100.352H24.576z"  horiz-adv-x="1024" />

    
    <glyph glyph-name="shebei" unicode="&#59061;" d="M89.6705-10.182000000000016a28.1475 28.1475 0 0 1 28.152-28.143h788.3505a28.143 28.143 0 0 1 28.152 28.143v168.9435H89.6705v-168.9435z m450.486 112.626h281.5515a28.152 28.152 0 0 0 0-56.304h-281.5515a28.152 28.152 0 0 0 0 56.304z m-323.7795 14.0805c23.3235 0 42.228-18.9045 42.228-42.2325s-18.9045-42.2325-42.228-42.2325c-23.328 0-42.237 18.9045-42.237 42.2325s18.909 42.2325 42.237 42.2325z m640.53 661.6485a40.815 40.815 0 0 1-35.1945 28.152H202.292a42.237 42.237 0 0 1-36.5985-28.152L113.606 665.5515h796.7925l-53.4915 112.6215zM89.6705 215.06550000000004H934.325V384H89.6705v-168.9345z m450.486 112.6215h281.5515a28.1565 28.1565 0 0 0 28.152-28.161 28.152 28.152 0 0 0-28.152-28.152h-281.5515a28.152 28.152 0 0 0-28.152 28.152 28.152 28.152 0 0 0 28.152 28.161z m-323.7795 14.0805c23.3235 0 42.228-18.9135 42.228-42.2415s-18.9045-42.2325-42.228-42.2325c-23.328 0-42.237 18.9045-42.237 42.2325s18.909 42.2415 42.237 42.2415zM89.6705 609.2384999999999v-168.93H934.325v168.93H89.6705z m126.7065-126.6975a42.2325 42.2325 0 1 0-0.0045 84.465 42.2325 42.2325 0 0 0 0.0045-84.465z m605.331 14.076h-281.5515a28.152 28.152 0 0 0 0 56.3085h281.5515a28.152 28.152 0 0 0 0-56.3085z"  horiz-adv-x="1024" />

    
    <glyph glyph-name="guizeliebiao" unicode="&#58882;" d="M782.560673 803.371142H235.890892c-46.050266 0-83.517302-37.475227-83.517302-83.521397v-728.888605c0-12.577407 10.19585-22.780425 22.776329-22.780424 1.278833 0 2.519782 0.131057 3.735134 0.329691a22.751756 22.751756 0 0 1 17.952805 4.549122l93.780729 73.864112 93.779704-73.864112c8.267874-6.491433 19.912522-6.491433 28.192683 0l97.308013 76.639865 94.317245-74.281857a22.829571 22.829571 0 0 1 28.192682 0l93.703937 73.807798 95.499832-75.212568a22.637081 22.637081 0 0 1 15.093094-4.851169c2.087702-0.633785 4.297247-0.979858 6.591774-0.979858 12.58867 0 22.779401 10.203017 22.7794 22.775305V719.85384c0.001024 46.045147-37.46294 83.517302-83.516278 83.517302zM291.139744 664.095093c0 7.650471 6.204745 13.851121 13.855217 13.851121h286.664341c7.654567 0 13.855216-6.20065 13.855216-13.851121v-22.379061c0-7.653543-6.201673-13.854192-13.855216-13.854193H304.994961c-7.650471 0-13.855216 6.20065-13.855217 13.854193v22.379061z m425.737662-423.073511c0-7.650471-6.201673-13.854192-13.851121-13.854193H304.994961c-7.650471 0-13.855216 6.204745-13.855217 13.854193V263.399619c0 7.654567 6.204745 13.854192 13.855217 13.854193h398.026205c7.651495 0 13.85624-6.20065 13.85624-13.854193v-22.378037z m0 133.56584c0-7.654567-6.201673-13.855216-13.851121-13.855216H304.994961c-7.650471 0-13.855216 6.20065-13.855217 13.855216v22.377014c0 7.650471 6.204745 13.855216 13.855217 13.855216h398.026205c7.651495 0 13.85624-6.204745 13.85624-13.855216v-22.377014z m0 133.560721c0-7.650471-6.201673-13.851121-13.851121-13.85112H304.994961c-7.650471 0-13.855216 6.20065-13.855217 13.85112v22.38111c0 7.650471 6.204745 13.851121 13.855217 13.85112h398.026205c7.651495 0 13.85624-6.20065 13.85624-13.85112v-22.38111z m0 0"  horiz-adv-x="1024" />

    
    <glyph glyph-name="caozuo" unicode="&#58891;" d="M556 453.333333m-66.666667 0a66.666667 66.666667 0 1 1 133.333334 0 66.666667 66.666667 0 1 1-133.333334 0ZM796 453.333333m-66.666667 0a66.666667 66.666667 0 1 1 133.333334 0 66.666667 66.666667 0 1 1-133.333334 0ZM1036 453.333333m-66.666667 0a66.666667 66.666667 0 1 1 133.333334 0 66.666667 66.666667 0 1 1-133.333334 0Z"  horiz-adv-x="1821" />

    
    <glyph glyph-name="dianli" unicode="&#58885;" d="M903.336737 504.513767a42.128576 42.128576 0 0 1-36.569945 22.234526h-2.340476l-244.579792 1.462798 63.192865 306.017299a24.867563 24.867563 0 0 1 0 2.633036A54.416078 54.416078 0 0 1 672.507245 881.915598 44.761613 44.761613 0 0 1 637.985217 895.958457a71.384532 71.384532 0 0 1-32.181551-8.484228 30.718754 30.718754 0 0 1-8.776787-7.021429L126.591108 335.706901l-2.047917-2.633036a40.665779 40.665779 0 0 1-3.510715-42.713696 43.883934 43.883934 0 0 1 41.836017-21.064288h220.589908L262.923862-72.706243a29.255956 29.255956 0 0 1 0-6.143751 45.054172 45.054172 0 0 1 10.824704-35.399707 44.469053 44.469053 0 0 1 31.596432-13.750299 73.432449 73.432449 0 0 1 26.330361 5.558632 31.888992 31.888992 0 0 1 11.409823 7.606548L895.145069 457.119118l3.218156 3.803274a44.469053 44.469053 0 0 1 4.973512 44.469053m0 0"  horiz-adv-x="1024" />

    
    <glyph glyph-name="index" unicode="&#58880;" d="M562.805 815.3025a72.135 72.135 0 0 1-96.93 0L73.925 443.13a36.1575 36.1575 0 0 1 48.42-53.7075l6.2325 5.9175V6.899999999999977a72.315 72.315 0 0 1 72.315-72.405h210.4425v217.71a50.9175 50.9175 0 0 0 50.94 50.985h99.0225a50.9175 50.9175 0 0 0 50.94-50.985v-217.71h215.4375a72.315 72.315 0 0 1 72.3375 72.405V390.5925c16.065-14.535 38.8575-13.4325 52.2225 1.4625a36.1575 36.1575 0 0 1-2.61 51.075L562.805 815.28z"  horiz-adv-x="1024" />

    
    <glyph glyph-name="shangchuan" unicode="&#58887;" d="M957.544-65.131H62.865V240.49h125.433v-203.734H832.16V240.491h125.384zM267.033 404.18l243.1 427.463 243.146-427.462zM434.892 405.518h150.529v-300.26H434.892v300.26z"  horiz-adv-x="1024" />

    
    <glyph glyph-name="danxuankuangxuanzhong" unicode="&#58931;" d="M512 896C226.742857 896 0 669.257143 0 384s226.742857-512 512-512 512 226.742857 512 512-226.742857 512-512 512z m0-950.857143c-241.371429 0-438.857143 197.485714-438.857143 438.857143s197.485714 438.857143 438.857143 438.857143 438.857143-197.485714 438.857143-438.857143-197.485714-438.857143-438.857143-438.857143zM292.571429 398.628571c0-117.028571 95.085714-204.8 204.8-204.8 117.028571 0 204.8 95.085714 204.8 204.8S614.4 603.428571 497.371429 603.428571C387.657143 603.428571 292.571429 508.342857 292.571429 398.628571z"  horiz-adv-x="1024" />

    
    <glyph glyph-name="wendu" unicode="&#58886;" d="M460.458667 239.786667V521.216c0 25.088-20.650667 45.738667-45.738667 45.738667-25.088 0-45.738667-20.650667-45.738667-45.738667v-281.429333c-52.565333-18.261333-91.477333-68.608-91.477333-130.389334 0-75.434667 61.781333-137.216 137.216-137.216s137.216 61.781333 137.216 137.216c0 59.562667-38.912 109.909333-91.477333 130.389334z m91.477333 52.736V750.08c0 75.434667-61.781333 137.216-137.216 137.216s-137.216-61.781333-137.216-137.216v-457.557333c-54.954667-41.130667-91.477333-107.52-91.477333-182.954667 0-125.781333 102.912-228.864 228.864-228.864S643.413333-16.384 643.413333 109.397333c0 75.605333-36.522667 141.824-91.477333 183.125334z m-137.386667-366.08c-100.693333 0-183.125333 82.432-183.125333 183.125333 0 68.608 36.693333 125.781333 91.477333 157.866667V750.08c0 50.346667 41.130667 91.477333 91.477334 91.477333s91.477333-41.130667 91.477333-91.477333v-482.816c54.954667-32.085333 91.477333-91.477333 91.477333-157.866667 0.341333-100.693333-82.090667-182.954667-182.784-182.954666z m0 0M851.285333 675.157333l8.533334 33.28s-105.984 39.424-146.944-59.562666c-25.429333-105.130667 63.317333-151.552 143.018666-121.344l-5.461333 33.28s-82.773333-30.208-95.914667 41.813333c-12.970667 72.533333 57.514667 90.282667 96.768 72.533333zM651.093333 729.258667c-25.6 0-46.421333-20.821333-46.421333-46.421334s20.821333-46.421333 46.421333-46.421333 46.421333 20.821333 46.421334 46.421333-20.821333 46.421333-46.421334 46.421334z m0-68.778667c-12.458667 0-22.357333 10.069333-22.357333 22.357333 0 12.458667 10.069333 22.357333 22.357333 22.357334 12.458667 0 22.357333-10.069333 22.357334-22.357334 0.170667-12.288-9.898667-22.357333-22.357334-22.357333z"  horiz-adv-x="1024" />

    
    <glyph glyph-name="jiedong" unicode="&#59111;" d="M862.8 465.2c-27.9 27.9-65.9 43.5-105.4 43.1h-410v101c-0.2 42.6 16.7 83.5 46.8 113.6 30.1 30.1 71 47 113.6 46.8h17.8c42.6 0.2 83.5-16.7 113.6-46.8 30.1-30.1 47-71 46.8-113.6 0-16.4 13.3-29.7 29.7-29.7s29.7 13.3 29.7 29.7c-1.8 120.6-99.2 218-219.8 219.8h-17.8c-120.6-1.8-218-99.2-219.8-219.8v-101h-11.9c-39.5 0.4-77.5-15.1-105.4-43.1-26.1-26.2-41.4-61.1-42.9-97.9V79c1.5-36.8 16.8-71.7 42.9-97.9 27.9-27.9 65.9-43.5 105.4-43.1h481.2c39.5-0.4 77.5 15.1 105.4 43.1 27.9 27.9 43.5 65.9 43.1 105.4V359.8c0.4 39.5-15.1 77.5-43 105.4z m-16.4-378.6c-1.2-48.7-40.4-87.9-89.1-89.1H276.2c-48.7 1.2-87.9 40.4-89.1 89.1V359.8c1.2 48.7 40.4 87.9 89.1 89.1h38.3c1.1-0.1 2.2-0.1 3.3 0 1.1-0.1 2.2-0.1 3.3 0h436.3c48.7-1.2 87.9-40.4 89.1-89.1v-273.2zM549.4 345.9c-18.4 10.6-41 10.6-59.4 0a59.3 59.3 0 0 1-29.7-51.4 59.3 59.3 0 0 1 29.7-51.4v-120.8c-0.5-8 2.5-15.9 8.2-21.5 5.7-5.7 13.5-8.7 21.5-8.2 16 1 28.7 13.7 29.7 29.7V243a59.3 59.3 0 0 1 29.7 51.4c0 21.3-11.3 40.9-29.7 51.5z"  horiz-adv-x="1024" />

    
    <glyph glyph-name="mingzhongshuai" unicode="&#58987;" d="M597.333333 614.4l-42.666666-76.8c-29.866667 12.8-55.466667 17.066667-85.333334 17.066667-140.8 0-256-115.2-256-256s115.2-256 256-256 256 115.2 256 256c0 29.866667-4.266667 55.466667-12.8 81.066666l76.8 42.666667c12.8-38.4 21.333333-81.066667 21.333334-123.733333 0-187.733333-153.6-341.333333-341.333334-341.333334s-341.333333 153.6-341.333333 341.333334 153.6 341.333333 341.333333 341.333333c46.933333 0 89.6-8.533333 128-25.6z m-89.6-149.333333L460.8 384c-42.666667-4.266667-76.8-42.666667-76.8-85.333333 0-46.933333 38.4-85.333333 85.333333-85.333334 42.666667 0 81.066667 34.133333 85.333334 76.8l81.066666 46.933334c4.266667-12.8 4.266667-25.6 4.266667-38.4 0-93.866667-76.8-170.666667-170.666667-170.666667s-170.666667 76.8-170.666666 170.666667 76.8 170.666667 170.666666 170.666666c12.8 0 25.6 0 38.4-4.266666zM789.333333 768l38.4-115.2 115.2-38.4-435.2-281.6L789.333333 768z"  horiz-adv-x="1024" />

    
    <glyph glyph-name="tuichu" unicode="&#59213;" d="M501.148282 384.991638a37.542166 37.542166 0 0 0-38.245683 36.710738V859.097394C462.902599 879.435399 480.042805 896 501.148282 896c21.169433 0 38.373594-16.628557 38.373594-36.902606v-437.20315a37.606122 37.606122 0 0 0-38.309638-36.902606zM489.636203-127.295845a497.385736 497.385736 0 0 0-346.001907 138.272851A470.460265 470.460265 0 0 0 38.746472 161.01776a457.413243 457.413243 0 0 0 17.587897 402.794826A483.187507 483.187507 0 0 0 205.223915 728.435305a39.205022 39.205022 0 0 0 53.467207-8.570102 35.943267 35.943267 0 0 0-8.953838-51.35666 408.422954 408.422954 0 0 1-125.609565-139.040323 380.857922 380.857922 0 0 1-47.263477-184.576988c0-106.422768 42.978425-206.449937 121.004734-281.662181a417.760529 417.760529 0 0 1 291.895139-116.655727 418.016352 418.016352 0 0 1 291.89514 116.591771 388.596597 388.596597 0 0 1 120.876822 281.726137 380.538142 380.538142 0 0 1-47.135565 184.576988 408.039218 408.039218 0 0 1-125.801433 138.912411 35.943267 35.943267 0 0 0-9.401531 50.653144l0.63956 0.767472a39.141066 39.141066 0 0 0 53.403252 8.570102 482.547947 482.547947 0 0 0 148.82559-164.558763 456.965551 456.965551 0 0 0 17.651853-402.794826 469.820705 469.820705 0 0 0-104.887824-150.10471 489.902886 489.902886 0 0 0-155.540969-101.178376A503.461556 503.461556 0 0 0 489.636203-127.295845z"  horiz-adv-x="1024" />

    
    <glyph glyph-name="yanjing_kai" unicode="&#58907;" d="M512 616.727273c171.985455 0 328.610909-162.909091 388.421818-232.727273-59.810909-69.818182-216.436364-232.727273-388.421818-232.727273S183.389091 314.181818 123.578182 384c59.810909 69.818182 216.436364 232.727273 388.421818 232.727273m0 69.818182C298.589091 686.545455 117.76 488.029091 56.785455 412.625455a44.916364 44.916364 0 0 1 0-57.25091C117.76 279.970909 298.589091 81.454545 512 81.454545s394.24 198.516364 455.214545 273.92a44.916364 44.916364 0 0 1 0 57.25091C906.24 488.029091 725.410909 686.545455 512 686.545455zM512 453.818182a69.818182 69.818182 0 1 0-69.818182-69.818182 69.818182 69.818182 0 0 0 69.818182 69.818182m0 69.818182a139.636364 139.636364 0 1 1 139.636364-139.636364 139.636364 139.636364 0 0 1-139.636364 139.636364z"  horiz-adv-x="1024" />

    
    <glyph glyph-name="chakan" unicode="&#58881;" d="M621.708855-54.918106H172.284468a99.274765 99.274765 0 0 0-99.172367 99.325964V723.613134c0 54.782877 44.338291 99.172367 99.121168 99.274765h679.358873a98.660377 98.660377 0 0 0 70.24496-29.132203c18.738816-18.738816 28.978606-43.621506 28.978606-70.193761l-1.535968-449.27079v-0.102398a36.60725 36.60725 0 0 1 73.214499-0.102398L1023.979008 723.459537v0.153597A172.335667 172.335667 0 0 1 851.643341 896H172.233269A172.233269 172.233269 0 0 1 0 723.664333v-679.307674A172.18207 172.18207 0 0 1 172.335667-127.979008h449.373188a36.504852 36.504852 0 0 1 0 73.060902zM1013.329627-65.516289l-139.107549 139.670737a220.565078 220.565078 0 0 1-37.119239 295.417944 218.363524 218.363524 0 0 1-296.237127-12.441345 220.616277 220.616277 0 0 1-12.390146-297.465902 218.363524 218.363524 0 0 1 294.189169-37.272836l139.107549-139.670737a36.351255 36.351255 0 0 1 51.557343 0 36.709647 36.709647 0 0 1 0 51.762139z m-317.433493 120.47113a146.173003 146.173003 0 0 0-145.917009 146.480198 146.173003 146.173003 0 0 0 145.917009 146.531396 146.173003 146.173003 0 0 0 145.917009-146.531396 146.173003 146.173003 0 0 0-145.917009-146.428999z m109.412157 512.450295a36.60725 36.60725 0 1 1 0 73.419295L221.896251 640.87563a36.60725 36.60725 0 0 1-36.55605-36.709647c0-20.274784 16.383664-36.709647 36.55605-36.709648l583.41204-0.153597z m-364.638925-219.438701c20.121188 0 36.402454 16.383664 36.402454 36.55605a36.453653 36.453653 0 0 1-36.402454 36.556051H221.896251a36.351255 36.351255 0 0 1-32.613731-17.919633 36.658449 36.658449 0 0 1 0-37.272836 36.351255 36.351255 0 0 1 32.613731-17.919632l218.773115-0.051199z m-218.619518-146.480197a36.504852 36.504852 0 0 1-36.453653-36.556051c0-20.172386 16.281266-36.556051 36.402454-36.556051h145.814611a36.351255 36.351255 0 0 1 32.613731 17.868434 36.709647 36.709647 0 0 1 0 37.324035 36.351255 36.351255 0 0 1-32.613731 17.868434H221.998649z"  horiz-adv-x="1024" />

    
    <glyph glyph-name="yanjing_bi" unicode="&#58884;" d="M512 258.793c-171.753 0-343.273 52.363-465.455 156.858a34.91 34.91 0 1 0 46.546 53.062c215.505-186.182 623.244-186.182 837.818 0a34.91 34.91 0 0 0 46.546-53.062C855.273 311.156 683.753 258.793 512 258.793zM384.465 104.727a28.625 28.625 0 0 0-6.283 0 34.676 34.676 0 0 0-29.091 42.124l23.273 137.309a34.91 34.91 0 1 0 69.818-12.102L418.909 134.75a34.91 34.91 0 0 0-34.444-30.022z m523.171 69.818a34.444 34.444 0 0 0-24.669 10.473L768.233 301.382a34.91 34.91 0 1 0 49.57 48.873L932.539 233.89a34.91 34.91 0 0 0 0-49.338 36.305 36.305 0 0 0-24.902-10.008z m-791.272 0a36.305 36.305 0 0 0-23.273 10.008 34.91 34.91 0 0 0 0 49.338l114.734 116.364A34.91 34.91 0 1 0 256 301.382L141.265 185.018a34.444 34.444 0 0 0-24.901-10.473z m524.8-69.818a34.91 34.91 0 0 0-34.211 28.858l-23.273 137.31a34.91 34.91 0 1 0 67.956 13.265l23.273-137.31a34.676 34.676 0 0 0-28.16-40.494 28.625 28.625 0 0 0-5.585-1.629z"  horiz-adv-x="1024" />

    
    <glyph glyph-name="course" unicode="&#58936;" d="M518.7 737.7c-3.1 1.9-13.6 1.9-16.7 0L232.9 569.8l269-167.9c3.2-1.9 13.7-1.9 16.8 0l269.1 167.9-269.1 167.9z m349.7-107.1c48-29.9 48-91.6 0-121.5L568.6 322c-33.7-21-82.8-21-116.5 0L152.2 509c-48 29.9-48 91.6 0 121.6L452 817.6c33.7 21 82.8 21 116.5 0l299.9-187z m-51-223.4c14.3 9.6 32.7 10.6 47.9 2.7 15.3-7.9 25-23.5 25.4-40.7 0.4-17.2-8.6-33.2-23.5-41.9l-299.8-187c-33.6-21-82.8-21-116.5 0l-299.8 187c-14.8 8.7-23.7 24.7-23.3 41.8 0.4 17.1 10.1 32.7 25.3 40.6 15.2 7.9 33.5 7 47.8-2.5l299.9-187.1c3.2-1.9 13.7-1.9 16.8 0l299.8 187.1z m-0.7-188.4c22 13.1 50.4 6.1 64-15.6 13.6-21.7 7.3-50.3-14.1-64.3L566.8-48.2c-33.7-21-82.8-21-116.5 0l-299.9 187c-22.1 13.8-28.8 42.8-15 64.9 13.8 22.1 42.8 28.8 64.9 15l299.8-187.1c3.1-1.9 13.6-1.9 16.7 0l299.9 187.2z m0 0M526.1 667.5l137-87.4c8.4-5.4 8.4-14.1 0-19.5l-137-87.4c-9.4-5.4-21-5.4-30.4 0l-137 87.4c-8.4 5.4-8.4 14.1 0 19.5l137 87.4c9.4 5.4 21 5.4 30.4 0z m0 0"  horiz-adv-x="1024" />

    
    <glyph glyph-name="xiala" unicode="&#58883;" d="M561.873 170.835c-11.262-11.262-26.545-21.72-41.025-18.502-14.479-2.413-28.154 8.849-39.415 18.502L133.129 520.748c-17.697 17.696-17.697 46.655 0 64.352s46.655 17.696 64.351 0l324.173-333.021 324.977 333.02c17.696 17.697 46.655 17.697 64.351 0s17.697-46.655 0-64.351L561.873 170.835z"  horiz-adv-x="1024" />

    
    <glyph glyph-name="eryanghuatan" unicode="&#58890;" d="M1116.672 561.423059c135.619765 8.493176 154.232471 19.305412 234.164706-56.952471 127.337412 60.114824 50.898824 275.727059-92.431059 230.219294C1265.423059 835.463529 1073.904941 1013.007059 933.647059 784.655059c4.547765-1.656471 181.458824-62.915765 183.024941-223.232M933.647059 775.529412v-4.818824l1.927529 3.855059zM800.256 293.647059c-32.647529 0-58.789647-12.559059-78.426353-37.014588-18.883765-24.335059-29.123765-58.036706-29.123765-100.653177h0.752942c0-41.472 9.396706-73.637647 29.033411-97.370353 19.606588-23.552 45.116235-36.020706 77.763765-36.020706 33.430588 0 59.723294 11.685647 77.101176 34.334118 17.498353 23.702588 26.172235 56.801882 26.172236 100.743529 0 43.971765-8.673882 77.040941-26.142118 100.592942-17.408 23.612235-43.730824 35.388235-77.101176 35.388235M1175.04 474.804706l-154.021647 5.360941C964.577882 890.277647 382.614588 960.752941 258.831059 411.949176l-60.325647-3.102117C-118.723765 258.048 5.872941-77.944471 149.082353-127.126588V-128h1032.884706c245.248 62.945882 298.616471 473.961412-6.927059 602.804706zM524.348235 282.985412a138.059294 138.059294 0 0 1-83.606588 27.286588c-35.629176 0-65.054118-12.137412-87.431529-36.382118-22.497882-24.274824-34.093176-56.771765-34.093177-97.129411 0-39.996235 10.902588-71.047529 31.713883-93.936942 21.684706-22.708706 49.513412-34.032941 85.955764-34.032941 30.208 0 59.512471 9.878588 86.558118 29.57553V20.720941c-27.045647-15.992471-59.512471-23.491765-98.243765-23.491765-51.109647 0-92.099765 16.022588-123.00047 48.51953-30.900706 31.744-46.381176 73.487059-46.381177 124.988235 0 56.922353 17.046588 102.460235 50.326588 137.306353 33.189647 34.816 78.848 52.284235 134.625883 52.284235 32.466824 0 60.295529-5.421176 83.57647-16.685176v-60.656941z m401.498353-235.760941c-32.466824-33.28-74.992941-50.748235-129.234823-50.748236-52.585412 0-95.171765 15.992471-126.885647 48.489412-31.683765 32.436706-47.134118 75.715765-47.134118 128.873412v0.602353c0 57.705412 16.263529 102.460235 48.64 135.830588 32.557176 33.370353 76.649412 49.272471 133.180235 49.272471 53.398588 0 94.298353-15.962353 124.506353-47.826824 30.208-31.924706 45.778824-75.866353 45.778824-131.855059 0-54.512941-16.353882-99.177412-48.850824-132.638117z m258.499765-18.853647v-22.889412h-124.687059v22.046117l59.632941 58.488471c16.323765 15.992471 27.919059 28.732235 33.28 38.550588a55.717647 55.717647 0 0 1 8.493177 29.665883c0 11.264-2.981647 20.208941-9.999059 26.413176-6.144 6.023529-16.263529 9.185882-28.611765 9.185882-18.552471 0-35.478588-7.649882-52.705882-23.04v25.901177c16.353882 12.197647 34.876235 18.311529 56.560941 18.311529 18.612706 0 33.370353-4.728471 44.152471-14.546823 10.812235-9.788235 16.263529-22.618353 16.263529-39.393883 0-12.739765-3.011765-24.937412-10.029176-37.165176-6.927059-12.107294-20.088471-27.166118-39.424-46.170353l-47.224471-44.754824v-0.662588h94.268235v0.060236z"  horiz-adv-x="1415" />

    
    <glyph glyph-name="wendu1" unicode="&#58927;" d="M777.102222 457.557333a18.375111 18.375111 0 0 0 0-36.750222h-44.657778a18.375111 18.375111 0 0 0 0 36.750222h44.771556-0.056889z m0 56.433778a18.375111 18.375111 0 0 0 0-36.750222h-44.657778a18.375111 18.375111 0 0 0 0 36.750222h44.771556-0.056889z m-44.657778 189.041778a18.375111 18.375111 0 1 0 0 36.750222h44.771556a18.375111 18.375111 0 0 0 0-36.750222h-44.771556z m44.771556-19.683556a18.375111 18.375111 0 1 0 0-36.750222h-44.771556a18.375111 18.375111 0 0 0 0 36.750222h44.771556z m0-56.433777a18.375111 18.375111 0 0 0 0-36.750223h-44.771556a18.375111 18.375111 0 0 0 0 36.750223h44.771556z m0-56.433778a18.375111 18.375111 0 0 0 0-36.750222h-44.771556a18.375111 18.375111 0 0 0 0 36.750222h44.771556z m-214.698667-274.204445a141.596444 141.596444 0 1 0-114.517333 0V640c0 23.893333 25.713778 43.406222 57.287111 43.406222 31.630222 0 57.230222-19.512889 57.230222-43.406222v-343.722667z m-57.230222-332.515555a203.093333 203.093333 0 0 0-202.922667 202.922666c0 60.700444 26.851556 117.703111 73.614223 156.444445l13.482666 11.150222v408.462222c0 42.666667 53.077333 78.620444 115.825778 78.620445 62.805333 0 115.825778-36.010667 115.825778-78.677334v-408.405333l13.539555-11.207111A202.467556 202.467556 0 0 0 708.266667 166.684444a203.093333 203.093333 0 0 0-202.922667-202.922666h-0.056889zM695.751111 368.64V742.741333c0 42.325333-21.674667 83.057778-59.619555 111.729778C600.746667 881.208889 554.382222 896 505.344 896c-49.038222 0-95.459556-14.734222-130.844444-41.528889-37.944889-28.728889-59.619556-69.404444-59.619556-111.729778V368.64A276.764444 276.764444 0 0 1 227.783111 166.684444c0-74.126222 28.842667-143.815111 81.294222-196.266666a275.740444 275.740444 0 0 1 196.209778-81.351111 275.740444 275.740444 0 0 1 196.209778 81.351111 275.740444 275.740444 0 0 1 81.351111 196.266666A276.764444 276.764444 0 0 1 695.637333 368.64l0.056889 0.056889z"  horiz-adv-x="1024" />

    
    <glyph glyph-name="gongju" unicode="&#58888;" d="M212.17-27.38c6.55 6.22 12.21 11.37 17.62 16.78 37.01 36.99 73.95 74.07 111 111.02 2.54 2.53 3.29 4.63 2.28 8.24a4908.89 4908.89 0 0 0-20.85 76.52c-1.12 4.24-3 6.1-7.28 7.2-25.6 6.57-51.13 13.46-76.64 20.38-3.42 0.93-5.62 0.35-8.21-2.26A24265.95 24265.95 0 0 0 128.66 109c-8.13-8.09-16.71-15.72-25.06-23.55-2.47 6.51-3.6 14.36-4.4 22.17-4.6 44.71 6.86 84.95 35.3 119.75 25.67 31.41 59 50.23 99.16 56.65 27.19 4.34 53.75 1.68 79.51-7.99 3.75-1.41 5.14 0.71 7.06 2.63 89.81 89.79 179.6 179.59 269.4 269.39 9.19 9.19 18.29 18.48 27.64 27.51 2.3 2.23 2.56 4.09 1.51 6.92-6.98 18.78-10.24 38.25-9.6 58.24 1.23 38.86 14.47 73.15 40.33 102.33 26.37 29.75 59.55 47.02 98.75 52.58 23.05 3.27 45.79 1.07 68.12-5.8-0.36-2.18-2.11-3.09-3.34-4.32-40.13-40.24-80.26-80.48-120.53-120.59-3.12-3.11-3.93-5.77-2.73-10.06 6.59-23.53 12.88-47.15 19.16-70.77 0.81-3.05 2.1-4.62 5.4-5.46 24.15-6.21 48.26-12.61 72.31-19.22 3.5-0.96 5.42 0 7.74 2.32 40.58 40.74 81.23 81.4 121.84 122.1 1.28 1.28 2.36 2.77 4.09 4.84 3.55-8.58 5.28-16.48 6.51-24.4 7.23-46.43-2.72-88.76-31.78-125.92-25.83-33.03-59.84-52.76-101.29-59.42-26.84-4.31-53.06-1.72-78.62 7.47-2.39 0.86-4.13 0.71-5.74-1.25-0.74-0.9-1.64-1.66-2.46-2.48-98.31-98.3-196.58-196.6-294.94-294.8-3.22-3.21-4.06-5.71-2.48-10.27 31.71-91.47-26.19-190.98-121.16-208.76-25.16-4.71-49.95-3.56-76.19 3.78zM491.76 495.62c-24.96 24.76-49.75 49.71-74.71 74.47-2.5 2.48-2.93 4.45-1.72 7.75 6.62 17.95 10.14 36.5 9.66 55.69 0 3.17 0.12 6.34-0.03 9.5-0.15 3.15-0.53 6.29-0.89 9.43-3.9 34.88-17.52 65.6-41.44 91.11-39.28 41.88-87.88 59.37-144.88 51.38-42.46-5.96-77.18-26.47-103.66-60.05-29.48-37.38-40.32-80.11-33.05-127.1 6.21-40.13 25.35-73.38 56.46-99.31 32.69-27.25 70.62-39.62 113.23-37.63 16.27 0.76 31.98 4 47.21 9.6 3.17 1.17 5.18 1.01 7.73-1.56 24.86-25.1 49.94-49.99 74.81-75.08 2.76-2.79 4.23-2.81 7.01-0.01 28.06 28.27 56.2 56.45 84.51 84.47 3.17 3.12 2.53 4.59-0.24 7.34zM344.97 635.51c-13.7-23.41-27.29-46.89-40.72-70.47-1.72-3.02-3.51-4.17-6.98-4.12-13.49 0.2-26.99 0.08-40.48 0.08-13.49 0-26.99 0.08-40.48-0.06-3-0.03-4.81 0.79-6.36 3.51-13.71 23.98-27.55 47.9-41.45 71.77-1.28 2.21-1.06 3.77 0.17 5.88 13.55 23.31 27.06 46.65 40.39 70.09 2.05 3.61 4.36 4.97 8.61 4.93 25.99-0.22 51.98-0.21 77.97-0.02 4.47 0.03 7.06-1.11 9.38-5.23 13.07-23.2 26.48-46.21 39.9-69.21 1.5-2.6 1.62-4.46 0.05-7.15z m583.88-501.44c-0.14 2.49-0.51 4.96-0.75 7.44-3.99 41.8-21.16 77.28-52.88 104.72-47.07 40.72-100.8 50.58-159.87 31.31-3.44-1.12-5.32-0.44-7.69 1.95-26.43 26.59-53.01 53.03-79.42 79.64-2.61 2.63-3.94 2.74-6.62 0.04-28.17-28.38-56.44-56.67-84.83-84.82-2.93-2.91-2.48-4.36 0.17-7 26.48-26.3 52.78-52.79 79.32-79.04 2.87-2.84 3.15-5.06 1.85-8.61-5.54-15.11-8.43-30.82-8.92-46.85-0.92-29.92 5.7-58.14 20.54-84.25 32.47-57.12 94.57-88 158.33-80.29 38.58 4.66 71.38 21.41 97.93 49.96 28.5 30.64 42.21 67.16 42.88 108.79-0.01 2.35 0.09 4.69-0.04 7.01z m-63.75-10.12a10883.52 10883.52 0 0 1-45.64-79.12c-1.47-2.56-3.33-2.75-5.75-2.74-14.99 0.05-29.98 0.02-44.96 0.02-14.82 0-29.64 0.09-44.46-0.07-3.1-0.03-4.72 1.06-6.23 3.69-14.55 25.41-29.15 50.79-43.99 76.03-2.34 3.98-2.15 6.88 0.13 10.75 14.74 25.11 29.28 50.33 43.72 75.61 1.64 2.87 3.42 3.84 6.67 3.83 29.64-0.12 59.28-0.1 88.93-0.02 2.92 0.01 4.82-0.57 6.42-3.38 14.84-26.01 29.84-51.93 44.87-77.83 1.33-2.33 1.81-4.16 0.29-6.77z"  horiz-adv-x="1024" />

    
    <glyph glyph-name="shujufenxi" unicode="&#58916;" d="M680.912 409.22h100.05l202.156 174.107c-8.83 20.77-18.725 40.744-29.957 59.955L685.06 412.848l-4.148-3.628zM536.209 895.81v-82l82.306 71.02C591.718 890.449 564.328 894.482 536.21 895.81z m423.314-486.59l58.36 50.235c-3.544 24.531-9.307 48.333-16.283 71.592L859.94 409.211h99.584v0.01zM792.428 812.31l-256.22-220.223v-86.11l309.198 266.456c-16.787 14.453-34.516 27.712-52.978 39.877zM678.687 868.562L536.209 745.983v-86.122L744.975 839.849c-21.341 10.891-43.281 20.79-66.288 28.713zM924.45 686.767c-12.783 17.401-26.563 33.99-41.403 49.588l-346.84-298.191v-28.944h66.064l322.18 277.547zM487.79 895.81C216.343 883.09 0.021 659.584 0.021 385.06c0-118.859 40.82-227.952 108.766-314.802L487.79 396.145V895.81z m33.103-534.939L140.319 33.608c93.391-98.702 225.138-160.585 371.7-160.585 274.553 0 498.045 216.358 510.79 487.848H520.891z m0 0"  horiz-adv-x="1024" />

    
    <glyph glyph-name="yonghu" unicode="&#58896;" d="M858.5 132.4c-18.9 44.8-46.1 85-80.6 119.5-34.5 34.5-74.7 61.6-119.5 80.6-0.4 0.2-0.8 0.3-1.2 0.5C719.5 378 760 451.3 760 534c0 137-111 248-248 248S264 671 264 534c0-82.7 40.5-156 102.8-201.1-0.4-0.2-0.8-0.3-1.2-0.5-44.8-18.9-85-46-119.5-80.6-34.5-34.5-61.6-74.7-80.6-119.5C146.9 88.5 137 42 136-5.8c-0.1-4.5 3.5-8.2 8-8.2h60c4.4 0 7.9 3.5 8 7.8 2 77.2 33 149.5 87.8 204.3 56.7 56.7 132 87.9 212.2 87.9s155.5-31.2 212.2-87.9C779 143.3 810 71 812-6.2c0.1-4.4 3.6-7.8 8-7.8h60c4.5 0 8.1 3.7 8 8.2-1 47.8-10.9 94.3-29.5 138.2zM512 362c-45.9 0-89.1 17.9-121.6 50.4S340 488.1 340 534c0 45.9 17.9 89.1 50.4 121.6S466.1 706 512 706s89.1-17.9 121.6-50.4S684 579.9 684 534c0-45.9-17.9-89.1-50.4-121.6S557.9 362 512 362z"  horiz-adv-x="1024" />

    
    <glyph glyph-name="xiugai" unicode="&#58965;" d="M794-58H150c-44.1 0-80 35.9-80 80V666c0 44.1 35.9 80 80 80h495.2c22.1 0 40-17.9 40-40s-17.9-40-40-40H150.1s-0.1 0-0.1-0.1V22s0-0.1 0.1-0.1H794s0.1 0 0.1 0.1V517.2c0 22.1 17.9 40 40 40s40-17.9 40-40V22c-0.1-44.1-36-80-80.1-80zM942.3 814.3c-15.6 15.6-40.9 15.6-56.6 0L294.1 222.7v-56.6h56.6l591.6 591.6c15.6 15.6 15.6 41 0 56.6z"  horiz-adv-x="1024" />

    
    <glyph glyph-name="perIinfo-radio" unicode="&#58893;" d="M512.08789063 776.51953125c-217.44140625 0-393.75-176.30859375-393.75000001-393.75s176.30859375-393.75 393.75000001-393.75 393.75 176.30859375 393.74999999 393.75-176.30859375 393.75-393.74999999 393.75z m0-731.25c-186.41601563 0-337.5 151.08398438-337.50000001 337.5s151.08398438 337.5 337.50000001 337.5 337.5-151.08398438 337.49999999-337.5-151.08398438-337.5-337.49999999-337.5zM512.00003344 384.00020073m-0.09534173 0a0.09534174 0.09534174 0 1 1 0.19068348 0 0.09534174 0.09534174 0 1 1-0.19068348 0Z"  horiz-adv-x="1024" />

    
    <glyph glyph-name="shanchu" unicode="&#58897;" d="M798.441658 13.032727a63.301818 63.301818 0 0 0-62.370909-63.953454H287.000204a63.115636 63.115636 0 0 0-62.370909 63.953454V691.851636h573.812363v-678.818909zM349.184931 806.632727a12.846545 12.846545 0 0 0 12.753454 13.032728h299.752728a12.753455 12.753455 0 0 0 12.846545-13.032728v-38.632727H349.371113V806.539636L349.09184 806.632727z m636.183273-38.539636h-236.450909V806.632727A88.436364 88.436364 0 0 1 661.598022 896H362.124567a88.436364 88.436364 0 0 1-87.133091-89.367273v-38.632727H37.609658A38.074182 38.074182 0 0 1 0.000931 729.553455c0-21.317818 16.756364-38.539636 37.515636-38.539637h111.895273v-677.981091c0-77.917091 61.626182-141.032727 137.588364-141.032727h449.070545c75.962182 0 137.495273 63.115636 137.495273 141.032727V691.851636h111.802182a37.981091 37.981091 0 0 1 37.608727 38.539637 37.236364 37.236364 0 0 1-37.515636 37.701818zM511.535476 64.698182a37.981091 37.981091 0 0 1 37.515637 38.446545V513.117091a38.074182 38.074182 0 0 1-37.515637 38.539636 37.981091 37.981091 0 0 1-37.515636-38.539636v-409.879273c0-21.317818 16.756364-38.446545 37.515636-38.446545v-0.093091z m-175.010909 0a37.981091 37.981091 0 0 1 37.515637 38.446545V513.117091a38.074182 38.074182 0 0 1-37.515637 38.539636 37.981091 37.981091 0 0 1-37.515636-38.539636v-409.879273c0.744727-21.317818 17.408-38.446545 37.515636-38.446545v-0.093091z m350.021818 0a37.981091 37.981091 0 0 1 37.515637 38.446545V513.117091a38.074182 38.074182 0 0 1-37.515637 38.539636 37.981091 37.981091 0 0 1-37.515636-38.539636v-409.879273c0-21.317818 16.756364-38.446545 37.515636-38.446545v-0.093091z"  horiz-adv-x="1024" />

    
    <glyph glyph-name="PM" unicode="&#58905;" d="M1024.999367-127.410995a567.277487 567.277487 0 0 0-184.096859 44.371728 301.636126 301.636126 0 0 0-43.651832 23.494764 906.871728 906.871728 0 0 1-148.56021 74.08377l-22.120419 8.049738a663.02356 663.02356 0 0 1-120.549738 29.712042 438.481675 438.481675 0 0 1-80.497382 5.235602 408.049738 408.049738 0 0 1-79.450262-5.235602 477.028796 477.028796 0 0 1-131.282722-38.350785 454.123037 454.123037 0 0 1-57.853404-31.151833 308.049738 308.049738 0 0 1-55.562827-42.866492 62.565445 62.565445 0 0 0-18.782722-14.594241 36.256545 36.256545 0 0 0-54.581152 13.547121 55.235602 55.235602 0 0 0-7.526178 21.138743 43.259162 43.259162 0 0 0 17.670157 30.235602l11.060209 9.685864a647.185864 647.185864 0 0 0 71.007854 50l18.062827 10.274869a610.994764 610.994764 0 0 0 59.358639 28.992147c3.206806 1.308901 9.685864 3.795812 14.397905 5.759162a643.848168 643.848168 0 0 0 81.544503 26.047121c14.921466 3.664921 43.848168 8.965969 64.332461 11.780104a643.651832 643.651832 0 0 0 148.298429 1.439791c17.408377-2.028796 51.767016-7.329843 66.884817-10.340314a814.986911 814.986911 0 0 0 143.979057-45.811519l20.222514-8.573298c8.115183-3.468586 46.858639-22.774869 58.900523-29.384817 5.104712-2.879581 12.36911-6.544503 15.968586-8.769633 5.759162-3.206806 30.628272-18.128272 47.054974-28.141362a363.41623 363.41623 0 0 1 70.157068-29.319371 450.589005 450.589005 0 0 1 111.97644-19.633508 447.120419 447.120419 0 0 1 140.706806 14.397906l18.848168 4.973822a532.984293 532.984293 0 0 1 80.497382 32.722513 581.871728 581.871728 0 0 1 74.47644 44.437173 64.267016 64.267016 0 0 0 12.76178 7.395287 115.248691 115.248691 0 0 0 14.856021 1.636126 39.921466 39.921466 0 0 0 26.832461-5.366492 26.17801 26.17801 0 0 0 12.303665-15.903141 51.04712 51.04712 0 0 0-1.832461-41.164922c-4.646597-9.947644-5.431937-10.602094-37.696335-31.609947a761.649215 761.649215 0 0 0-87.10733-45.811519 620.484293 620.484293 0 0 0-90.772251-30.628272 596.727749 596.727749 0 0 0-87.565445-15.248691c-16.099476-1.897906-76.570681-2.748691-92.670157-1.505236zM1198.494131 150.272251a141.884817 141.884817 0 0 0-57.460733 19.960733 187.5 187.5 0 0 0-20.876963 18.062828 146.269634 146.269634 0 0 0-18.782723 29.450261 101.439791 101.439791 0 0 0-7.787958 44.240838 75.719895 75.719895 0 0 0 2.486911 25.52356 120.680628 120.680628 0 0 0 6.151832 16.950262 126.308901 126.308901 0 0 0 46.335079 50.65445 119.109948 119.109948 0 0 0 56.479058 18.913613 151.243455 151.243455 0 0 0 50.719895-4.712042 141.753927 141.753927 0 0 0 30.170157-13.612566 5.955497 5.955497 0 0 1 2.486911-1.374345 101.963351 101.963351 0 0 0 20.680628-17.801047 85.078534 85.078534 0 0 0 15.837697-22.447644 104.712042 104.712042 0 0 0-11.256545-116.426702 130.170157 130.170157 0 0 0-60.405759-41.623036 132.984293 132.984293 0 0 0-54.777487-5.759163zM265.837063 227.039267a134.882199 134.882199 0 0 0-70.680628 30.104712 140.379581 140.379581 0 0 0-47.643979 76.178011 92.801047 92.801047 0 0 0-2.617801 30.955497 93.390052 93.390052 0 0 0 2.617801 31.086387 138.28534 138.28534 0 0 0 92.212041 100.523561 108.049738 108.049738 0 0 0 39.725131 5.759162 160.536649 160.536649 0 0 0 23.03665-1.308901 138.67801 138.67801 0 0 0 89.986911-49.73822 108.507853 108.507853 0 0 0 22.054973-66.819371 290.445026 290.445026 0 0 0-7.068062-60.274869 149.60733 149.60733 0 0 0-12.761781-27.945027 50.26178 50.26178 0 0 1-3.795811-6.544502 52.748691 52.748691 0 0 0-4.908377-6.871728 137.434555 137.434555 0 0 0-81.937173-52.356021 175.981675 175.981675 0 0 0-38.219895-2.748691zM775.326592 273.505236a111.256545 111.256545 0 0 0-72.774869 58.246073 96.465969 96.465969 0 0 0 0 85.078534 94.175393 94.175393 0 0 0 59.816754 51.374345 96.138743 96.138743 0 0 0 49.541884 0.654451A111.910995 111.910995 0 0 0 884.358005 398.570681a57.198953 57.198953 0 0 0 3.075917-26.701571 77.159686 77.159686 0 0 0-7.002618-39.790576 124.34555 124.34555 0 0 0-18.193718-29.188482 139.790576 139.790576 0 0 0-22.709424-18.390052 111.910995 111.910995 0 0 0-29.057591-10.405759 142.408377 142.408377 0 0 0-35.143979-0.589005zM1404.907744 535.02356a96.662304 96.662304 0 0 0-28.468587 14.201571 142.539267 142.539267 0 0 0-27.225131 28.730366 93.128272 93.128272 0 0 0-15.117801 33.246074 77.159686 77.159686 0 0 0 14.397906 38.219895 94.109948 94.109948 0 0 0 29.450262 24.08377 82.657068 82.657068 0 0 0 41.819372 9.685863 65.903141 65.903141 0 0 0 23.625654-2.617801 80.890052 80.890052 0 0 0 37.10733-19.633507 68.062827 68.062827 0 0 0 2.225131-102.814137 84.685864 84.685864 0 0 0-37.958115-21.531413 87.696335 87.696335 0 0 0-39.856021-1.570681zM478.009838 584.172775a118.586387 118.586387 0 0 0-99.672775 61.060209 111.256545 111.256545 0 0 0-6.544503 83.311519 126.963351 126.963351 0 0 0 117.408377 80.431937 129.057592 129.057592 0 0 0 59.489529-13.089005 107.787958 107.787958 0 0 0 52.879581-53.795812 105.497382 105.497382 0 0 0-23.102094-120.353403 130.235602 130.235602 0 0 0-100.13089-37.565445zM1031.871094 621.541885a132.460733 132.460733 0 0 0-110.602094 71.989529 147.774869 147.774869 0 0 0-6.544503 18.979057 78.534031 78.534031 0 0 0-2.617801 24.934555 290.314136 290.314136 0 0 0 3.664922 49.018325 141.557592 141.557592 0 0 0 39.267016 71.204188 170.942408 170.942408 0 0 0 34.162303 25.065445 199.672775 199.672775 0 0 0 35.602095 11.58377 152.290576 152.290576 0 0 0 45.157068 0 178.534031 178.534031 0 0 0 35.798429-11.58377 148.232984 148.232984 0 0 0 52.356021-46.858638 115.641361 115.641361 0 0 0 17.081152-35.078534 136.910995 136.910995 0 0 0-21.269634-125.523561 139.856021 139.856021 0 0 0-82.198953-52.356021 174.86911 174.86911 0 0 0-39.856021-1.374345zM78.467953 685.612565A99.280105 99.280105 0 0 0 3.598843 755.835079a76.112565 76.112565 0 0 0-3.206806 23.298429 89.397906 89.397906 0 0 0 4.581152 36.84555A92.670157 92.670157 0 0 0 28.729733 854.918848 97.316754 97.316754 0 0 0 129.449628 878.609948a95.157068 95.157068 0 0 0 35.53665-22.054974 85.078534 85.078534 0 0 0 21.204188-29.057592 103.206806 103.206806 0 0 0-10.274869-105.039267 134.947644 134.947644 0 0 0-21.662304-20.942408 129.450262 129.450262 0 0 0-31.086387-14.463351 110.274869 110.274869 0 0 0-44.698953-1.439791z"  horiz-adv-x="1505" />

    


  </font>
</defs>
</svg>
